<mxfile host="app.diagrams.net" modified="2022-11-04T17:27:22.629Z" agent="5.0 (Windows NT 10.0; Win64; x64) AppleWebKit/537.36 (KHTML, like Gecko) Chrome/107.0.0.0 Safari/537.36" etag="xOlDdK6KhH888Pxe_p3T" version="20.5.1" type="github">
  <diagram id="0uL1XAGUiet5--fEhf08" name="PÃ¡gina-1">
    <mxGraphModel dx="2249" dy="772" grid="1" gridSize="10" guides="1" tooltips="1" connect="1" arrows="1" fold="1" page="1" pageScale="1" pageWidth="827" pageHeight="1169" math="0" shadow="0">
      <root>
        <mxCell id="0" />
        <mxCell id="1" parent="0" />
        <mxCell id="fZB2xeo70fzH0p9U2D0L-56" value="" style="edgeStyle=none;rounded=0;orthogonalLoop=1;jettySize=auto;html=1;exitX=1.014;exitY=0.265;exitDx=0;exitDy=0;exitPerimeter=0;" parent="1" source="fZB2xeo70fzH0p9U2D0L-6" edge="1">
          <mxGeometry relative="1" as="geometry">
            <mxPoint x="150" y="65" as="targetPoint" />
          </mxGeometry>
        </mxCell>
        <mxCell id="fZB2xeo70fzH0p9U2D0L-5" value="User" style="swimlane;fontStyle=0;childLayout=stackLayout;horizontal=1;startSize=36;fillColor=none;horizontalStack=0;resizeParent=1;resizeParentMax=0;resizeLast=0;collapsible=1;marginBottom=0;" parent="1" vertex="1">
          <mxGeometry x="-100" y="20" width="140" height="250" as="geometry" />
        </mxCell>
        <mxCell id="fZB2xeo70fzH0p9U2D0L-6" value="User" style="text;strokeColor=none;fillColor=none;align=left;verticalAlign=top;spacingLeft=4;spacingRight=4;overflow=hidden;rotatable=0;points=[[0,0.5],[1,0.5]];portConstraint=eastwest;" parent="fZB2xeo70fzH0p9U2D0L-5" vertex="1">
          <mxGeometry y="36" width="140" height="34" as="geometry" />
        </mxCell>
        <mxCell id="fZB2xeo70fzH0p9U2D0L-7" value="Password" style="text;strokeColor=none;fillColor=none;align=left;verticalAlign=top;spacingLeft=4;spacingRight=4;overflow=hidden;rotatable=0;points=[[0,0.5],[1,0.5]];portConstraint=eastwest;" parent="fZB2xeo70fzH0p9U2D0L-5" vertex="1">
          <mxGeometry y="70" width="140" height="30" as="geometry" />
        </mxCell>
        <mxCell id="fZB2xeo70fzH0p9U2D0L-8" value="First Name" style="text;strokeColor=none;fillColor=none;align=left;verticalAlign=top;spacingLeft=4;spacingRight=4;overflow=hidden;rotatable=0;points=[[0,0.5],[1,0.5]];portConstraint=eastwest;" parent="fZB2xeo70fzH0p9U2D0L-5" vertex="1">
          <mxGeometry y="100" width="140" height="34" as="geometry" />
        </mxCell>
        <mxCell id="fZB2xeo70fzH0p9U2D0L-10" value="Last Name" style="text;strokeColor=none;fillColor=none;align=left;verticalAlign=top;spacingLeft=4;spacingRight=4;overflow=hidden;rotatable=0;points=[[0,0.5],[1,0.5]];portConstraint=eastwest;" parent="fZB2xeo70fzH0p9U2D0L-5" vertex="1">
          <mxGeometry y="134" width="140" height="26" as="geometry" />
        </mxCell>
        <mxCell id="fZB2xeo70fzH0p9U2D0L-9" value="Email" style="text;strokeColor=none;fillColor=none;align=left;verticalAlign=top;spacingLeft=4;spacingRight=4;overflow=hidden;rotatable=0;points=[[0,0.5],[1,0.5]];portConstraint=eastwest;" parent="fZB2xeo70fzH0p9U2D0L-5" vertex="1">
          <mxGeometry y="160" width="140" height="30" as="geometry" />
        </mxCell>
        <mxCell id="fZB2xeo70fzH0p9U2D0L-12" value="Phone" style="text;strokeColor=none;fillColor=none;align=left;verticalAlign=top;spacingLeft=4;spacingRight=4;overflow=hidden;rotatable=0;points=[[0,0.5],[1,0.5]];portConstraint=eastwest;" parent="fZB2xeo70fzH0p9U2D0L-5" vertex="1">
          <mxGeometry y="190" width="140" height="30" as="geometry" />
        </mxCell>
        <mxCell id="fZB2xeo70fzH0p9U2D0L-11" value="Address" style="text;strokeColor=none;fillColor=none;align=left;verticalAlign=top;spacingLeft=4;spacingRight=4;overflow=hidden;rotatable=0;points=[[0,0.5],[1,0.5]];portConstraint=eastwest;" parent="fZB2xeo70fzH0p9U2D0L-5" vertex="1">
          <mxGeometry y="220" width="140" height="30" as="geometry" />
        </mxCell>
        <mxCell id="fZB2xeo70fzH0p9U2D0L-13" value="Budget" style="swimlane;fontStyle=0;childLayout=stackLayout;horizontal=1;startSize=36;fillColor=none;horizontalStack=0;resizeParent=1;resizeParentMax=0;resizeLast=0;collapsible=1;marginBottom=0;" parent="1" vertex="1">
          <mxGeometry x="150" y="40" width="140" height="114" as="geometry" />
        </mxCell>
        <mxCell id="fZB2xeo70fzH0p9U2D0L-15" value="Name" style="text;strokeColor=none;fillColor=none;align=left;verticalAlign=top;spacingLeft=4;spacingRight=4;overflow=hidden;rotatable=0;points=[[0,0.5],[1,0.5]];portConstraint=eastwest;" parent="fZB2xeo70fzH0p9U2D0L-13" vertex="1">
          <mxGeometry y="36" width="140" height="26" as="geometry" />
        </mxCell>
        <mxCell id="fZB2xeo70fzH0p9U2D0L-16" value="Expiration date" style="text;strokeColor=none;fillColor=none;align=left;verticalAlign=top;spacingLeft=4;spacingRight=4;overflow=hidden;rotatable=0;points=[[0,0.5],[1,0.5]];portConstraint=eastwest;" parent="fZB2xeo70fzH0p9U2D0L-13" vertex="1">
          <mxGeometry y="62" width="140" height="26" as="geometry" />
        </mxCell>
        <mxCell id="fZB2xeo70fzH0p9U2D0L-17" value="Total" style="text;strokeColor=none;fillColor=none;align=left;verticalAlign=top;spacingLeft=4;spacingRight=4;overflow=hidden;rotatable=0;points=[[0,0.5],[1,0.5]];portConstraint=eastwest;" parent="fZB2xeo70fzH0p9U2D0L-13" vertex="1">
          <mxGeometry y="88" width="140" height="26" as="geometry" />
        </mxCell>
        <mxCell id="fZB2xeo70fzH0p9U2D0L-19" value="Products" style="swimlane;fontStyle=0;childLayout=stackLayout;horizontal=1;startSize=30;fillColor=none;horizontalStack=0;resizeParent=1;resizeParentMax=0;resizeLast=0;collapsible=1;marginBottom=0;" parent="1" vertex="1">
          <mxGeometry x="610" y="40" width="140" height="108" as="geometry" />
        </mxCell>
        <mxCell id="fZB2xeo70fzH0p9U2D0L-21" value="Name" style="text;strokeColor=none;fillColor=none;align=left;verticalAlign=top;spacingLeft=4;spacingRight=4;overflow=hidden;rotatable=0;points=[[0,0.5],[1,0.5]];portConstraint=eastwest;" parent="fZB2xeo70fzH0p9U2D0L-19" vertex="1">
          <mxGeometry y="30" width="140" height="26" as="geometry" />
        </mxCell>
        <mxCell id="fZB2xeo70fzH0p9U2D0L-22" value="Description" style="text;strokeColor=none;fillColor=none;align=left;verticalAlign=top;spacingLeft=4;spacingRight=4;overflow=hidden;rotatable=0;points=[[0,0.5],[1,0.5]];portConstraint=eastwest;" parent="fZB2xeo70fzH0p9U2D0L-19" vertex="1">
          <mxGeometry y="56" width="140" height="26" as="geometry" />
        </mxCell>
        <mxCell id="fZB2xeo70fzH0p9U2D0L-23" value="Price" style="text;strokeColor=none;fillColor=none;align=left;verticalAlign=top;spacingLeft=4;spacingRight=4;overflow=hidden;rotatable=0;points=[[0,0.5],[1,0.5]];portConstraint=eastwest;" parent="fZB2xeo70fzH0p9U2D0L-19" vertex="1">
          <mxGeometry y="82" width="140" height="26" as="geometry" />
        </mxCell>
        <mxCell id="fZB2xeo70fzH0p9U2D0L-50" value="" style="rounded=0;orthogonalLoop=1;jettySize=auto;html=1;align=center;" parent="1" source="fZB2xeo70fzH0p9U2D0L-41" target="fZB2xeo70fzH0p9U2D0L-21" edge="1">
          <mxGeometry relative="1" as="geometry" />
        </mxCell>
        <mxCell id="fZB2xeo70fzH0p9U2D0L-51" value="" style="edgeStyle=none;rounded=0;orthogonalLoop=1;jettySize=auto;html=1;entryX=1;entryY=0.231;entryDx=0;entryDy=0;entryPerimeter=0;" parent="1" target="fZB2xeo70fzH0p9U2D0L-15" edge="1">
          <mxGeometry relative="1" as="geometry">
            <mxPoint x="380" y="82" as="sourcePoint" />
          </mxGeometry>
        </mxCell>
        <mxCell id="fZB2xeo70fzH0p9U2D0L-41" value="Line Item" style="swimlane;fontStyle=0;childLayout=stackLayout;horizontal=1;startSize=26;fillColor=none;horizontalStack=0;resizeParent=1;resizeParentMax=0;resizeLast=0;collapsible=1;marginBottom=0;" parent="1" vertex="1">
          <mxGeometry x="380" y="48" width="140" height="78" as="geometry" />
        </mxCell>
        <mxCell id="fZB2xeo70fzH0p9U2D0L-47" value="Quantity" style="text;strokeColor=none;fillColor=none;align=left;verticalAlign=top;spacingLeft=4;spacingRight=4;overflow=hidden;rotatable=0;points=[[0,0.5],[1,0.5]];portConstraint=eastwest;" parent="fZB2xeo70fzH0p9U2D0L-41" vertex="1">
          <mxGeometry y="26" width="140" height="26" as="geometry" />
        </mxCell>
        <mxCell id="fZB2xeo70fzH0p9U2D0L-44" value="Price" style="text;strokeColor=none;fillColor=none;align=left;verticalAlign=top;spacingLeft=4;spacingRight=4;overflow=hidden;rotatable=0;points=[[0,0.5],[1,0.5]];portConstraint=eastwest;" parent="fZB2xeo70fzH0p9U2D0L-41" vertex="1">
          <mxGeometry y="52" width="140" height="26" as="geometry" />
        </mxCell>
        <mxCell id="fZB2xeo70fzH0p9U2D0L-52" value="1:1" style="text;html=1;align=center;verticalAlign=middle;resizable=0;points=[];autosize=1;strokeColor=none;fillColor=none;" parent="1" vertex="1">
          <mxGeometry x="580" y="55" width="40" height="30" as="geometry" />
        </mxCell>
        <mxCell id="fZB2xeo70fzH0p9U2D0L-53" value="0:n" style="text;html=1;align=center;verticalAlign=middle;resizable=0;points=[];autosize=1;strokeColor=none;fillColor=none;" parent="1" vertex="1">
          <mxGeometry x="510" y="55" width="40" height="30" as="geometry" />
        </mxCell>
        <mxCell id="fZB2xeo70fzH0p9U2D0L-54" value="0:n" style="text;html=1;align=center;verticalAlign=middle;resizable=0;points=[];autosize=1;strokeColor=none;fillColor=none;" parent="1" vertex="1">
          <mxGeometry x="350" y="55" width="40" height="30" as="geometry" />
        </mxCell>
        <mxCell id="fZB2xeo70fzH0p9U2D0L-55" value="1:1" style="text;html=1;align=center;verticalAlign=middle;resizable=0;points=[];autosize=1;strokeColor=none;fillColor=none;" parent="1" vertex="1">
          <mxGeometry x="280" y="55" width="40" height="30" as="geometry" />
        </mxCell>
        <mxCell id="fZB2xeo70fzH0p9U2D0L-57" value="0:n" style="text;html=1;align=center;verticalAlign=middle;resizable=0;points=[];autosize=1;strokeColor=none;fillColor=none;" parent="1" vertex="1">
          <mxGeometry x="115" y="35" width="40" height="30" as="geometry" />
        </mxCell>
        <mxCell id="fZB2xeo70fzH0p9U2D0L-58" value="1:1" style="text;html=1;align=center;verticalAlign=middle;resizable=0;points=[];autosize=1;strokeColor=none;fillColor=none;" parent="1" vertex="1">
          <mxGeometry x="30" y="35" width="40" height="30" as="geometry" />
        </mxCell>
      </root>
    </mxGraphModel>
  </diagram>
</mxfile>
